<?xml version="1.0" encoding="UTF-8"?>
<svg version="1.1" xmlns="http://www.w3.org/2000/svg" width="1000" height="1000">
<path d="M0 0 C1.87824463 -0.01052147 1.87824463 -0.01052147 3.79443359 -0.02125549 C7.81351653 -0.03866658 11.83244995 -0.04568939 15.8515625 -0.046875 C16.53603706 -0.04731686 17.22051163 -0.04775871 17.92572784 -0.04821396 C38.26281397 -0.05510132 58.31153058 0.23128349 78.4765625 3.203125 C79.71712402 3.37473145 80.95768555 3.54633789 82.23583984 3.72314453 C143.20912845 12.24645621 202.60191161 32.53775495 255.4765625 64.203125 C256.38229004 64.74324219 257.28801758 65.28335938 258.22119141 65.83984375 C284.30943756 81.47700571 308.63094043 99.58139598 331.1171875 120.0625 C332.61442416 121.42092002 334.12360658 122.7663792 335.6484375 124.09375 C341.7236175 129.41476972 347.44576749 135.06537913 353.1640625 140.765625 C353.97222412 141.56919434 354.78038574 142.37276367 355.61303711 143.20068359 C360.44068448 148.04073626 365.03452396 153.00873377 369.4765625 158.203125 C370.42594453 159.28615558 371.37641294 160.36823511 372.328125 161.44921875 C380.1291222 170.39247004 387.39446536 179.68327335 394.4765625 189.203125 C395.01958008 189.93047852 395.56259766 190.65783203 396.12207031 191.40722656 C409.33186207 209.16941238 420.72360755 227.87023225 431.4765625 247.203125 C431.87439941 247.91082031 432.27223633 248.61851562 432.68212891 249.34765625 C460.28453014 298.64193154 476.76164439 355.1269204 483.7265625 411.015625 C483.85118866 412.01456787 483.85118866 412.01456787 483.97833252 413.03369141 C485.60934054 426.26539256 486.62951987 439.38708664 486.6796875 452.7265625 C486.68670181 453.9787709 486.69371613 455.23097931 486.70094299 456.52113342 C486.71835341 460.54017058 486.72537678 464.55905823 486.7265625 468.578125 C486.72700436 469.26245228 486.72744621 469.94677956 486.72790146 470.65184402 C486.73478758 490.97979018 486.50282601 511.05242456 483.4765625 531.203125 C483.29963867 532.42725098 483.12271484 533.65137695 482.94042969 534.91259766 C476.27351619 580.20500565 463.82842618 623.86252534 444.71679688 665.49658203 C443.61502067 667.90097001 442.53426848 670.31329689 441.4609375 672.73046875 C435.9438887 684.99313472 429.25738949 696.60358265 422.4765625 708.203125 C422.0031543 709.01458984 421.52974609 709.82605469 421.04199219 710.66210938 C405.61938174 736.92613669 387.11278637 761.34158901 366.6171875 783.84375 C365.25876748 785.34098666 363.9133083 786.85016908 362.5859375 788.375 C357.26491778 794.45018 351.61430837 800.17232999 345.9140625 805.890625 C345.11049316 806.69878662 344.30692383 807.50694824 343.47900391 808.33959961 C338.63895124 813.16724698 333.67095373 817.76108646 328.4765625 822.203125 C327.39353192 823.15250703 326.31145239 824.10297544 325.23046875 825.0546875 C316.28721746 832.8556847 306.99641415 840.12102786 297.4765625 847.203125 C296.74920898 847.74614258 296.02185547 848.28916016 295.27246094 848.84863281 C277.51597112 862.05418843 258.82368343 873.486483 239.4765625 884.203125 C238.3019043 884.85643799 238.3019043 884.85643799 237.10351562 885.52294922 C188.24695438 912.51443516 133.57181521 928.5818178 78.4765625 936.203125 C77.35588379 936.36828613 76.23520508 936.53344727 75.08056641 936.70361328 C36.57759543 942.20728999 -6.07546047 941.97730194 -44.5234375 936.203125 C-45.74756348 936.02620117 -46.97168945 935.84927734 -48.23291016 935.66699219 C-93.52531815 929.00007869 -137.18283784 916.55498868 -178.81689453 897.44335938 C-181.22128251 896.34158317 -183.63360939 895.26083098 -186.05078125 894.1875 C-226.66133719 875.91966044 -264.32210194 849.25712809 -297.1640625 819.34375 C-298.66129916 817.98532998 -300.17048158 816.6398708 -301.6953125 815.3125 C-307.7704925 809.99148028 -313.49264249 804.34087087 -319.2109375 798.640625 C-320.01909912 797.83705566 -320.82726074 797.03348633 -321.65991211 796.20556641 C-326.48755948 791.36551374 -331.08139896 786.39751623 -335.5234375 781.203125 C-336.47281953 780.12009442 -337.42328794 779.03801489 -338.375 777.95703125 C-346.1759972 769.01377996 -353.44134036 759.72297665 -360.5234375 750.203125 C-361.06645508 749.47577148 -361.60947266 748.74841797 -362.16894531 747.99902344 C-375.37873707 730.23683762 -386.77048255 711.53601775 -397.5234375 692.203125 C-397.92127441 691.49542969 -398.31911133 690.78773438 -398.72900391 690.05859375 C-426.33140514 640.76431846 -442.80851939 584.2793296 -449.7734375 528.390625 C-449.85652161 527.72466309 -449.93960571 527.05870117 -450.02520752 526.37255859 C-451.65621554 513.14085744 -452.67639487 500.01916336 -452.7265625 486.6796875 C-452.73708397 484.80137489 -452.73708397 484.80137489 -452.74781799 482.88511658 C-452.76522841 478.86607942 -452.77225178 474.84719177 -452.7734375 470.828125 C-452.77387936 470.14379772 -452.77432121 469.45947044 -452.77477646 468.75440598 C-452.78166258 448.42645982 -452.54970101 428.35382544 -449.5234375 408.203125 C-449.34651367 406.97899902 -449.16958984 405.75487305 -448.98730469 404.49365234 C-442.32010173 359.19927782 -429.80126287 315.61497556 -410.77978516 273.95800781 C-409.67371442 271.53264788 -408.58585822 269.10023847 -407.50390625 266.6640625 C-389.22687408 226.05905115 -362.57706606 188.40404936 -332.6640625 155.5625 C-331.30564248 154.06526334 -329.9601833 152.55608092 -328.6328125 151.03125 C-323.31179278 144.95607 -317.66118337 139.23392001 -311.9609375 133.515625 C-311.15736816 132.70746338 -310.35379883 131.89930176 -309.52587891 131.06665039 C-304.6851905 126.23836891 -299.70841929 121.65660432 -294.5234375 117.203125 C-293.40158301 116.20543974 -292.28172543 115.20550365 -291.1640625 114.203125 C-281.07664268 105.23900274 -270.42466298 97.14778943 -259.5234375 89.203125 C-258.42878174 88.40044189 -258.42878174 88.40044189 -257.31201172 87.58154297 C-240.85020469 75.54926416 -223.47696747 64.98610166 -205.54345703 55.30126953 C-203.69190775 54.29471059 -201.85426353 53.2672631 -200.01953125 52.23046875 C-151.77427683 25.50073166 -96.25190112 9.750086 -41.7109375 2.953125 C-41.04497559 2.87004089 -40.37901367 2.78695679 -39.69287109 2.70135498 C-26.46116989 1.07034695 -13.33947592 0.05016785 0 0 Z " fill="#1A202C" transform="translate(481.5234375,29.796875)"/>
<path d="M0 0 C6.13355678 3.02275765 10.87600233 6.85839468 14 13 C14.99891522 16.22052011 15.19124988 19.2792826 15.31640625 22.640625 C15.37924805 24.24550781 15.37924805 24.24550781 15.44335938 25.8828125 C15.48267578 26.99398438 15.52199219 28.10515625 15.5625 29.25 C15.60568359 30.37664062 15.64886719 31.50328125 15.69335938 32.6640625 C15.79932015 35.44258954 15.90139142 38.22120391 16 41 C20.62855628 43.34071025 25.26906138 45.62107762 30 47.75 C30.94875 48.17796875 31.8975 48.6059375 32.875 49.046875 C33.57625 49.36140625 34.2775 49.6759375 35 50 C35 50.66 35 51.32 35 52 C40.18546773 51.52859384 44.61537491 50.55166124 49.515625 48.828125 C62.57795013 44.47401662 75.29198287 43.79017909 88.9375 43.8125 C89.67232605 43.81343658 90.4071521 43.81437317 91.16424561 43.81533813 C106.74412537 43.85843512 121.08326715 44.33201159 135.765625 49.9765625 C140.8025526 51.57037292 144.14280399 51.58088274 148.875 49.28515625 C150.2563823 48.55623983 151.63132846 47.81501208 153 47.0625 C157.68699187 44.51196589 161.58710392 42.53283196 167 42 C166.98428955 41.2793335 166.9685791 40.55866699 166.95239258 39.81616211 C166.88969513 36.52335585 166.85089905 33.23067562 166.8125 29.9375 C166.77479492 28.2369043 166.77479492 28.2369043 166.73632812 26.50195312 C166.66501054 18.34797538 167.53603458 13.59034961 172.1875 6.8125 C177.24750231 1.75249769 181.75456857 -0.22290206 188.9375 -0.625 C195.34677622 -0.41432847 199.22287189 1.89227838 204 6 C205.2065625 7.0209375 205.2065625 7.0209375 206.4375 8.0625 C210.63795665 13.27106624 210.33509823 18.84332858 210.37109375 25.234375 C210.38012222 26.22697327 210.3891507 27.21957153 210.39845276 28.24224854 C210.4129385 30.34017938 210.42183782 32.43815522 210.42553711 34.53613281 C210.43740842 37.72539631 210.48659043 40.9127084 210.53710938 44.1015625 C210.54657744 46.14582395 210.55381064 48.19009722 210.55859375 50.234375 C210.57812607 51.17843201 210.59765839 52.12248901 210.61778259 53.09515381 C210.57280339 59.78636059 209.01614751 64.59980473 205 70 C200.39475438 74.43048563 195.07834263 76.30467995 189 78 C191.4492334 80.46672793 193.90746577 82.91280429 196.4375 85.296875 C212.42018837 100.59737545 226.89171424 120.39246973 233.625 141.6875 C234.43542902 144.23392999 235.26966121 146.73802015 236.1875 149.25 C236.99685565 151.9893576 237.1669151 154.16244331 237 157 C237.66 157 238.32 157 239 157 C239.08564209 157.63091553 239.17128418 158.26183105 239.25952148 158.91186523 C239.64783714 161.75435681 240.04258081 164.59591869 240.4375 167.4375 C240.57220703 168.43072266 240.70691406 169.42394531 240.84570312 170.44726562 C241.04389648 171.86362305 241.04389648 171.86362305 241.24609375 173.30859375 C241.36654053 174.18314209 241.4869873 175.05769043 241.61108398 175.95874023 C241.79922202 177.98664505 241.79922202 177.98664505 243 179 C243.0825 180.19439697 243.165 181.38879395 243.25 182.61938477 C243.82583248 187.52057253 245.86587174 190.3844452 249 194.08984375 C249.53148148 194.72078949 250.06296295 195.35173523 250.61054993 196.00180054 C252.3674568 198.02079176 254.1693922 199.98516059 256 201.9375 C256.92708267 202.93503799 256.92708267 202.93503799 257.87289429 203.95272827 C267.46358066 213.91521165 275.83766281 217.96518341 289.70117188 218.37915039 C297.84006436 218.3650977 305.91312124 217.90186239 314 217 C314 217.66 314 218.32 314 219 C315.2684375 219.0309375 315.2684375 219.0309375 316.5625 219.0625 C322.19969815 220.59991768 325.35494469 224.6938477 328.671875 229.34375 C331.16890144 234.33780289 330.79627921 239.57374246 330 245 C327.63995849 250.4516959 323.98768133 254.75800713 319 258 C318.21359131 258.51957275 317.42718262 259.03914551 316.61694336 259.57446289 C311.30847095 261.66667824 306.28636493 261.44803407 300.62890625 261.43359375 C299.43321518 261.4388356 298.23752411 261.44407745 297.00559998 261.44947815 C294.48152441 261.45589047 291.95741892 261.45457164 289.43334961 261.44604492 C285.57937206 261.43753725 281.72687806 261.46630684 277.87304688 261.49804688 C275.41666711 261.49965911 272.96028473 261.49908093 270.50390625 261.49609375 C269.35579971 261.50732773 268.20769318 261.51856171 267.02479553 261.53013611 C257.957959 261.45147176 253.58117674 259.65182388 247.0625 253.25 C246.03395595 252.17398469 245.01027558 251.09318574 244 250 C243.31964884 261.09942187 242.80884229 272.19369844 242.49744701 283.30992413 C242.34773043 288.4766889 242.14611651 293.62895234 241.81225586 298.78735352 C239.90138641 326.32824264 239.90138641 326.32824264 251.56373405 350.40302181 C260.23373553 360.03500467 271.09903039 369.98089623 284.58984375 370.9453125 C288.08975713 370.93045521 291.46928152 370.5651779 294.9375 370.125 C297.60453709 369.94074873 300.27148086 369.79908411 302.94129944 369.66183472 C304.56791403 369.56255578 306.19295461 369.42833336 307.81297302 369.25149536 C314.43095558 368.57941275 317.83279325 370.48295527 323.125 374.1875 C328.31538459 378.80421051 330.23785013 384.00681873 330.6875 390.875 C330.45327793 397.72816422 327.61962006 402.09223462 323 407 C321.03004272 408.70575125 319.32907497 409.75782668 317 411 C316.3925444 411.35429077 315.78508881 411.70858154 315.15922546 412.0736084 C312.52865052 413.20222724 310.4999492 413.28076163 307.63989258 413.32226562 C306.56810257 413.34148071 305.49631256 413.3606958 304.39204407 413.38049316 C302.66077522 413.3932428 302.66077522 413.3932428 300.89453125 413.40625 C299.70075363 413.41765015 298.50697601 413.42905029 297.27702332 413.4407959 C294.74941549 413.45968858 292.22175848 413.47276098 289.6940918 413.48046875 C285.84400368 413.49984148 281.99606949 413.56187183 278.14648438 413.625 C275.68751264 413.63806487 273.22852568 413.64856393 270.76953125 413.65625 C269.62547318 413.6809436 268.4814151 413.70563721 267.3026886 413.7310791 C257.96882232 413.67956546 253.21236591 410.69472324 246.35766602 404.68237305 C245.66342529 403.96605713 244.96918457 403.24974121 244.25390625 402.51171875 C243.47982422 401.72345703 242.70574219 400.93519531 241.90820312 400.12304688 C241.13412109 399.31931641 240.36003906 398.51558594 239.5625 397.6875 C237.9825722 396.06435615 236.40064333 394.44315689 234.81640625 392.82421875 C234.13006104 392.11354248 233.44371582 391.40286621 232.73657227 390.6706543 C231.09064929 388.92123368 231.09064929 388.92123368 229 388 C228.61328125 389.54494141 228.61328125 389.54494141 228.21875 391.12109375 C226.42107245 397.37996586 222.56072929 402.62010516 219 408 C218.62842773 408.5667041 218.25685547 409.1334082 217.87402344 409.71728516 C204.81537425 429.4291978 188.05303718 444.70543085 168 457 C166.54144687 457.95799877 165.08307137 458.91626814 163.625 459.875 C159.14190802 462.66126577 154.35365994 465 149 465 C149 465.66 149 466.32 149 467 C146.58570231 467.84080019 144.16896007 468.67281402 141.75 469.5 C140.72712891 469.85771484 140.72712891 469.85771484 139.68359375 470.22265625 C136.23586997 471.39421287 133.68297096 472 130 472 C130 472.66 130 473.32 130 474 C129.14535156 474.13277344 128.29070312 474.26554687 127.41015625 474.40234375 C126.30542969 474.57894531 125.20070313 474.75554687 124.0625 474.9375 C122.96035156 475.11152344 121.85820313 475.28554688 120.72265625 475.46484375 C118.09573071 475.71845136 118.09573071 475.71845136 117 477 C111.58107428 477.83600319 106.26963161 478.17976149 100.79296875 478.23828125 C100.03371597 478.24793915 99.2744632 478.25759705 98.49220276 478.26754761 C96.05725157 478.29220668 93.62256224 478.30491479 91.1875 478.3125 C90.35907593 478.31545074 89.53065186 478.31840149 88.67712402 478.32144165 C73.6037739 478.33368185 60.44895238 476.57056779 46.13378906 471.72094727 C44.31386492 471.10604612 42.48580375 470.51531569 40.65625 469.9296875 C18.92363298 462.66755062 0.28249464 449.92166374 -16 434 C-16.72445312 433.33742188 -17.44890625 432.67484375 -18.1953125 431.9921875 C-30.22579656 420.74100605 -40.25268709 404.90031602 -47 390 C-47 389.34 -47 388.68 -47 388 C-52.52299682 392.61332676 -57.63171485 397.54722587 -62.61035156 402.73535156 C-67.18623365 407.42142211 -72.7848326 412.55302296 -79.52192688 413.26742554 C-80.46900009 413.27504913 -81.4160733 413.28267273 -82.3918457 413.29052734 C-83.47009109 413.30328705 -84.54833649 413.31604675 -85.65925598 413.32919312 C-87.39993599 413.33253159 -87.39993599 413.33253159 -89.17578125 413.3359375 C-90.37430222 413.3425943 -91.57282318 413.3492511 -92.80766296 413.35610962 C-95.34368353 413.36623518 -97.87973073 413.37092667 -100.41577148 413.37060547 C-104.28739609 413.37497169 -108.15787448 413.41127571 -112.02929688 413.44921875 C-114.49478777 413.45508832 -116.96028408 413.45905677 -119.42578125 413.4609375 C-120.5801619 413.47530853 -121.73454254 413.48967957 -122.92390442 413.50448608 C-130.56056971 413.46128456 -135.15804329 412.54825341 -140.890625 407.25390625 C-141.33921875 406.69574219 -141.7878125 406.13757813 -142.25 405.5625 C-142.70890625 405.00691406 -143.1678125 404.45132812 -143.640625 403.87890625 C-148.24437191 397.51568136 -149.03242062 392.80271741 -148 385 C-145.72202981 378.06062783 -141.21854229 373.64266075 -135 370 C-131.77559031 368.92519677 -129.48938476 369.14005007 -126.15286255 369.47808838 C-122.72318546 369.80033757 -119.29062715 369.94192736 -115.84960938 370.09033203 C-114.07588321 370.1942762 -112.30416311 370.34845701 -110.54003906 370.56005859 C-98.88616508 371.90302883 -90.33176831 368.50223787 -81.20213985 361.46916676 C-70.2440629 352.46222579 -61.49085096 342.75965835 -59.69335938 328.27197266 C-58.70952908 317.43717781 -59.30757219 306.58510038 -60.00872803 295.75170898 C-60.31055567 290.57828632 -60.43888522 285.40047003 -60.58398438 280.22070312 C-60.89103019 270.13598083 -61.3827374 260.07017907 -62 250 C-62.4125 250.45890625 -62.825 250.9178125 -63.25 251.390625 C-69.16448958 257.67477018 -74.07452272 261.06087382 -82.84594727 261.51757812 C-85.08595166 261.54377933 -87.32630514 261.54716314 -89.56640625 261.53125 C-90.75926743 261.5350769 -91.9521286 261.53890381 -93.18113708 261.54284668 C-95.69327645 261.54555903 -98.20544438 261.53824558 -100.7175293 261.52148438 C-104.55386473 261.50004825 -108.38833141 261.52132111 -112.22460938 261.546875 C-114.67187912 261.54423198 -117.1191477 261.53910753 -119.56640625 261.53125 C-120.70823868 261.53934692 -121.85007111 261.54744385 -123.02650452 261.55578613 C-131.17463527 261.46019838 -136.41420843 259.95406137 -142.375 254.125 C-145.08236029 251.30243289 -145.8115126 248.95823533 -146 245 C-146.66 245 -147.32 245 -148 245 C-149.03269743 232.45463867 -149.03269743 232.45463867 -145.4375 227.5625 C-143.7890625 225.71875 -143.7890625 225.71875 -142 224 C-141.38898438 223.4121875 -140.77796875 222.824375 -140.1484375 222.21875 C-137.43039598 219.76672957 -135.51075669 218.17025223 -132 217 C-130.04834211 217.13650883 -128.09673741 217.28066582 -126.1499176 217.4743042 C-110.7691128 218.94558072 -94.54436752 220.26802274 -81.90234375 210.078125 C-79.15512991 207.66973908 -76.59058206 205.13602375 -74.0625 202.5 C-73.14346893 201.57096863 -73.14346893 201.57096863 -72.20587158 200.62316895 C-62.97060045 191.04257489 -60.4450487 183.10692867 -60 170 C-59.67 169.67 -59.34 169.34 -59 169 C-58.60430892 166.98688551 -58.25747809 164.96402792 -57.9375 162.9375 C-57.67259766 161.28041016 -57.67259766 161.28041016 -57.40234375 159.58984375 C-57.26957031 158.73519531 -57.13679688 157.88054687 -57 157 C-56.34 157 -55.68 157 -55 157 C-54.95875 155.845 -54.9175 154.69 -54.875 153.5 C-53.84510207 143.97344413 -49.37698565 134.42635261 -45 126 C-44.34 126 -43.68 126 -43 126 C-42.88527344 125.2678125 -42.77054687 124.535625 -42.65234375 123.78125 C-39.34502373 109.6805802 -22.85272623 92.22252869 -11.734375 83.34375 C-8.78964627 81.22643173 -8.78964627 81.22643173 -8 78 C-8.7321875 77.88914062 -9.464375 77.77828125 -10.21875 77.6640625 C-16.23080109 76.22860086 -21.38077141 72.26789728 -25 67.3125 C-27.28561312 63.52695327 -28.12280772 60.97083624 -28.16113281 56.63964844 C-28.17074036 55.76153503 -28.1803479 54.88342163 -28.19024658 53.97869873 C-28.19449646 53.0318219 -28.19874634 52.08494507 -28.203125 51.109375 C-28.20882507 50.13139954 -28.21452515 49.15342407 -28.22039795 48.14581299 C-28.22984689 46.07459596 -28.23638151 44.0033639 -28.24023438 41.93212891 C-28.24991991 38.77609711 -28.28093628 35.62072215 -28.3125 32.46484375 C-28.31903232 30.45052469 -28.32428189 28.43620098 -28.328125 26.421875 C-28.3404718 25.48309509 -28.3528186 24.54431519 -28.36553955 23.5770874 C-28.34273401 16.80843225 -27.53355217 11.77290736 -22.80859375 6.6015625 C-22.02613281 5.94929688 -21.24367188 5.29703125 -20.4375 4.625 C-19.25994141 3.62339844 -19.25994141 3.62339844 -18.05859375 2.6015625 C-12.80904613 -1.48252578 -6.34762402 -0.92185411 0 0 Z " fill="#CFCADE" transform="translate(397,257)"/>
<path d="M0 0 C1.87824463 -0.01052147 1.87824463 -0.01052147 3.79443359 -0.02125549 C7.81351653 -0.03866658 11.83244995 -0.04568939 15.8515625 -0.046875 C16.53603706 -0.04731686 17.22051163 -0.04775871 17.92572784 -0.04821396 C38.26281397 -0.05510132 58.31153058 0.23128349 78.4765625 3.203125 C79.71712402 3.37473145 80.95768555 3.54633789 82.23583984 3.72314453 C143.20912845 12.24645621 202.60191161 32.53775495 255.4765625 64.203125 C256.38229004 64.74324219 257.28801758 65.28335938 258.22119141 65.83984375 C284.30943756 81.47700571 308.63094043 99.58139598 331.1171875 120.0625 C332.61442416 121.42092002 334.12360658 122.7663792 335.6484375 124.09375 C341.7236175 129.41476972 347.44576749 135.06537913 353.1640625 140.765625 C353.97222412 141.56919434 354.78038574 142.37276367 355.61303711 143.20068359 C360.44068448 148.04073626 365.03452396 153.00873377 369.4765625 158.203125 C370.42594453 159.28615558 371.37641294 160.36823511 372.328125 161.44921875 C380.1291222 170.39247004 387.39446536 179.68327335 394.4765625 189.203125 C395.01958008 189.93047852 395.56259766 190.65783203 396.12207031 191.40722656 C409.33186207 209.16941238 420.72360755 227.87023225 431.4765625 247.203125 C431.87439941 247.91082031 432.27223633 248.61851562 432.68212891 249.34765625 C460.28453014 298.64193154 476.76164439 355.1269204 483.7265625 411.015625 C483.85118866 412.01456787 483.85118866 412.01456787 483.97833252 413.03369141 C485.60934054 426.26539256 486.62951987 439.38708664 486.6796875 452.7265625 C486.68670181 453.9787709 486.69371613 455.23097931 486.70094299 456.52113342 C486.71835341 460.54017058 486.72537678 464.55905823 486.7265625 468.578125 C486.72700436 469.26245228 486.72744621 469.94677956 486.72790146 470.65184402 C486.73478758 490.97979018 486.50282601 511.05242456 483.4765625 531.203125 C483.29963867 532.42725098 483.12271484 533.65137695 482.94042969 534.91259766 C476.27351619 580.20500565 463.82842618 623.86252534 444.71679688 665.49658203 C443.61502067 667.90097001 442.53426848 670.31329689 441.4609375 672.73046875 C435.9438887 684.99313472 429.25738949 696.60358265 422.4765625 708.203125 C422.0031543 709.01458984 421.52974609 709.82605469 421.04199219 710.66210938 C405.61938174 736.92613669 387.11278637 761.34158901 366.6171875 783.84375 C365.25876748 785.34098666 363.9133083 786.85016908 362.5859375 788.375 C357.26491778 794.45018 351.61430837 800.17232999 345.9140625 805.890625 C345.11049316 806.69878662 344.30692383 807.50694824 343.47900391 808.33959961 C338.63895124 813.16724698 333.67095373 817.76108646 328.4765625 822.203125 C327.39353192 823.15250703 326.31145239 824.10297544 325.23046875 825.0546875 C316.28721746 832.8556847 306.99641415 840.12102786 297.4765625 847.203125 C296.74920898 847.74614258 296.02185547 848.28916016 295.27246094 848.84863281 C277.51597112 862.05418843 258.82368343 873.486483 239.4765625 884.203125 C238.3019043 884.85643799 238.3019043 884.85643799 237.10351562 885.52294922 C188.24695438 912.51443516 133.57181521 928.5818178 78.4765625 936.203125 C77.35588379 936.36828613 76.23520508 936.53344727 75.08056641 936.70361328 C36.57759543 942.20728999 -6.07546047 941.97730194 -44.5234375 936.203125 C-45.74756348 936.02620117 -46.97168945 935.84927734 -48.23291016 935.66699219 C-93.52531815 929.00007869 -137.18283784 916.55498868 -178.81689453 897.44335938 C-181.22128251 896.34158317 -183.63360939 895.26083098 -186.05078125 894.1875 C-226.66133719 875.91966044 -264.32210194 849.25712809 -297.1640625 819.34375 C-298.66129916 817.98532998 -300.17048158 816.6398708 -301.6953125 815.3125 C-307.7704925 809.99148028 -313.49264249 804.34087087 -319.2109375 798.640625 C-320.01909912 797.83705566 -320.82726074 797.03348633 -321.65991211 796.20556641 C-326.48755948 791.36551374 -331.08139896 786.39751623 -335.5234375 781.203125 C-336.47281953 780.12009442 -337.42328794 779.03801489 -338.375 777.95703125 C-346.1759972 769.01377996 -353.44134036 759.72297665 -360.5234375 750.203125 C-361.06645508 749.47577148 -361.60947266 748.74841797 -362.16894531 747.99902344 C-375.37873707 730.23683762 -386.77048255 711.53601775 -397.5234375 692.203125 C-397.92127441 691.49542969 -398.31911133 690.78773438 -398.72900391 690.05859375 C-426.33140514 640.76431846 -442.80851939 584.2793296 -449.7734375 528.390625 C-449.85652161 527.72466309 -449.93960571 527.05870117 -450.02520752 526.37255859 C-451.65621554 513.14085744 -452.67639487 500.01916336 -452.7265625 486.6796875 C-452.73708397 484.80137489 -452.73708397 484.80137489 -452.74781799 482.88511658 C-452.76522841 478.86607942 -452.77225178 474.84719177 -452.7734375 470.828125 C-452.77387936 470.14379772 -452.77432121 469.45947044 -452.77477646 468.75440598 C-452.78166258 448.42645982 -452.54970101 428.35382544 -449.5234375 408.203125 C-449.34651367 406.97899902 -449.16958984 405.75487305 -448.98730469 404.49365234 C-442.32010173 359.19927782 -429.80126287 315.61497556 -410.77978516 273.95800781 C-409.67371442 271.53264788 -408.58585822 269.10023847 -407.50390625 266.6640625 C-389.22687408 226.05905115 -362.57706606 188.40404936 -332.6640625 155.5625 C-331.30564248 154.06526334 -329.9601833 152.55608092 -328.6328125 151.03125 C-323.31179278 144.95607 -317.66118337 139.23392001 -311.9609375 133.515625 C-311.15736816 132.70746338 -310.35379883 131.89930176 -309.52587891 131.06665039 C-304.6851905 126.23836891 -299.70841929 121.65660432 -294.5234375 117.203125 C-293.40158301 116.20543974 -292.28172543 115.20550365 -291.1640625 114.203125 C-281.07664268 105.23900274 -270.42466298 97.14778943 -259.5234375 89.203125 C-258.42878174 88.40044189 -258.42878174 88.40044189 -257.31201172 87.58154297 C-240.85020469 75.54926416 -223.47696747 64.98610166 -205.54345703 55.30126953 C-203.69190775 54.29471059 -201.85426353 53.2672631 -200.01953125 52.23046875 C-151.77427683 25.50073166 -96.25190112 9.750086 -41.7109375 2.953125 C-41.04497559 2.87004089 -40.37901367 2.78695679 -39.69287109 2.70135498 C-26.46116989 1.07034695 -13.33947592 0.05016785 0 0 Z M-32.5234375 40.203125 C-33.6160791 40.32671387 -34.7087207 40.45030273 -35.83447266 40.57763672 C-82.7927647 45.95006647 -127.97705648 59.74349843 -170.5234375 80.203125 C-171.37421875 80.60466797 -172.225 81.00621094 -173.1015625 81.41992188 C-206.31707656 97.11373001 -236.82543986 118.16188548 -264.5234375 142.203125 C-265.235 142.81414062 -265.9465625 143.42515625 -266.6796875 144.0546875 C-268.64395597 145.75329671 -270.58700282 147.47285066 -272.5234375 149.203125 C-273.36648438 149.95335937 -274.20953125 150.70359375 -275.078125 151.4765625 C-281.32963376 157.11816797 -287.3708413 162.94690907 -293.3359375 168.890625 C-294.39349243 169.9412915 -294.39349243 169.9412915 -295.47241211 171.01318359 C-300.02633552 175.58053091 -304.32679249 180.30714727 -308.5234375 185.203125 C-309.3690625 186.16734375 -310.2146875 187.1315625 -311.0859375 188.125 C-335.7145118 216.70046121 -355.5483263 248.61590787 -372.5234375 282.203125 C-372.89710449 282.93966309 -373.27077148 283.67620117 -373.65576172 284.43505859 C-392.11641076 321.1707781 -404.63122595 362.20854188 -410.0703125 402.97021484 C-410.53780351 406.30562215 -411.09009036 409.62008959 -411.6484375 412.94140625 C-414.51218727 431.27601624 -414.92804085 449.5369413 -414.95689392 468.07078552 C-414.96086152 470.04040535 -414.97006472 472.01001241 -414.97937012 473.97961426 C-415.03477133 491.91761205 -413.93622632 509.42852521 -411.5234375 527.203125 C-411.41657623 528.00574768 -411.30971497 528.80837036 -411.19961548 529.63531494 C-410.6051476 534.04499958 -409.934173 538.43786189 -409.2109375 542.828125 C-408.89564087 544.75350098 -408.89564087 544.75350098 -408.57397461 546.71777344 C-405.40890601 565.61976793 -400.73211818 584.07932855 -394.5234375 602.203125 C-394.17297363 603.23775879 -393.82250977 604.27239258 -393.46142578 605.33837891 C-387.66231269 622.36237417 -381.13201565 638.90665802 -373.5234375 655.203125 C-373.12721191 656.05745117 -372.73098633 656.91177734 -372.32275391 657.79199219 C-355.38178875 693.96614612 -332.16402021 728.08209019 -305.078125 757.40234375 C-303.11526819 759.5542831 -301.20690388 761.72991308 -299.30859375 763.9375 C-295.10661604 768.75377871 -290.61468893 773.25845619 -286.0859375 777.765625 C-285.27833984 778.57708984 -284.47074219 779.38855469 -283.63867188 780.22460938 C-278.76243697 785.09298572 -273.75634409 789.72286328 -268.5234375 794.203125 C-267.47514819 795.12860881 -266.42819558 796.05560969 -265.3828125 796.984375 C-204.54098995 850.46267681 -126.77912477 886.30976718 -46.5234375 897.203125 C-44.49214835 897.49191226 -42.46089841 897.78097548 -40.4296875 898.0703125 C-38.4403714 898.34568742 -36.45079608 898.61919774 -34.4609375 898.890625 C-33.5939624 899.01026611 -32.7269873 899.12990723 -31.83374023 899.25317383 C-16.66555947 901.22071416 -1.48885084 901.38957518 13.7824707 901.38842773 C17.00941354 901.390605 20.23600824 901.40880622 23.46289062 901.42773438 C43.33787229 901.48298135 62.89636302 899.86443759 82.5390625 896.890625 C83.25615387 896.78396515 83.97324524 896.6773053 84.71206665 896.56741333 C97.11917009 894.71255008 109.32013648 892.32198251 121.4765625 889.203125 C122.17185059 889.0292627 122.86713867 888.85540039 123.58349609 888.67626953 C150.79412547 881.86197803 177.06236557 872.01165469 202.4765625 860.203125 C203.33523926 859.80544922 204.19391602 859.40777344 205.07861328 858.99804688 C233.87744111 845.50876037 260.5566516 827.86519394 285.4765625 808.203125 C286.49363281 807.40132812 287.51070312 806.59953125 288.55859375 805.7734375 C294.4116424 801.06755289 299.96445753 796.09272208 305.45703125 790.9765625 C307.67482161 788.91571771 309.94675188 786.93088272 312.2421875 784.95703125 C317.04940613 780.76702872 321.54228435 776.28393601 326.0390625 771.765625 C326.85052734 770.95802734 327.66199219 770.15042969 328.49804688 769.31835938 C333.36590871 764.44263981 338.00404866 759.44227423 342.4765625 754.203125 C343.3221875 753.23890625 344.1678125 752.2746875 345.0390625 751.28125 C364.36035429 728.86359734 381.29804857 704.17126933 395.4765625 678.203125 C396.19489258 676.89190674 396.19489258 676.89190674 396.92773438 675.55419922 C419.64696516 633.78656266 435.86315281 588.1858769 443.4765625 541.203125 C443.647323 540.16983063 443.647323 540.16983063 443.8215332 539.11566162 C447.54275209 516.45741744 448.94065869 494.10174967 448.9140625 471.140625 C448.91419342 469.9740033 448.91432434 468.80738159 448.91445923 467.60540771 C448.87247451 446.8106905 447.57338113 426.17483005 444.6640625 405.578125 C444.49302002 404.36141113 444.32197754 403.14469727 444.14575195 401.89111328 C442.67077718 391.81046472 440.68430091 381.93573839 438.19482422 372.05957031 C437.41631859 368.96354179 436.66779822 365.86090349 435.91796875 362.7578125 C421.42673095 303.82507343 393.39960805 248.52207012 355.4765625 201.203125 C354.68121094 200.19636719 353.88585937 199.18960938 353.06640625 198.15234375 C348.35995363 192.28380407 343.37450358 186.72418788 338.25 181.22265625 C336.17937538 178.9941122 334.18383965 176.71160618 332.19921875 174.40625 C328.17325286 169.78723173 323.88122957 165.46080641 319.5390625 161.140625 C318.39920898 159.9949707 318.39920898 159.9949707 317.23632812 158.82617188 C312.47925938 154.07722793 307.57783292 149.57766494 302.4765625 145.203125 C301.42834687 144.27755773 300.38139471 143.35055686 299.3359375 142.421875 C276.84557869 122.65346331 251.74166326 105.54377608 225.4765625 91.203125 C224.60241699 90.72423828 223.72827148 90.24535156 222.82763672 89.75195312 C176.94657301 64.79525074 127.3448367 48.59356203 75.6640625 41.515625 C74.87659637 41.40685028 74.08913025 41.29807556 73.27780151 41.18600464 C54.84661072 38.66020706 36.69151228 37.99707815 18.1015625 38.015625 C16.98584869 38.01622925 15.87013489 38.0168335 14.72061157 38.01745605 C-1.12670402 38.04079001 -16.77753099 38.26586421 -32.5234375 40.203125 Z " fill="#F46464" transform="translate(481.5234375,29.796875)"/>
<path d="M0 0 C28.38 0 56.76 0 86 0 C86 73.92 86 147.84 86 224 C69.18473329 222.31847333 53.92098448 214.94454326 41 204 C39.63294922 202.84951172 39.63294922 202.84951172 38.23828125 201.67578125 C16.66018413 182.99017167 2.18782251 156.66725708 0 128 C-0.13270764 123.7421518 -0.12667612 119.48789184 -0.11352539 115.22827148 C-0.11367142 113.97850021 -0.11381744 112.72872894 -0.1139679 111.44108582 C-0.11339379 108.04087648 -0.10840531 104.64072911 -0.10139394 101.24053073 C-0.09510977 97.67712512 -0.09455261 94.11371853 -0.09336853 90.55030823 C-0.09027007 83.81448312 -0.08207684 77.07867439 -0.07201904 70.34285647 C-0.05871282 61.23226468 -0.05334599 52.12166836 -0.04751682 43.0110693 C-0.03813584 28.67403395 -0.01820704 14.33703315 0 0 Z " fill="#1A202C" transform="translate(380,464)"/>
<path d="M0 0 C28.38 0 56.76 0 86 0 C86.1209091 31.29306701 86.1209091 31.29306701 86.14648438 44.5234375 C86.16420516 53.6169143 86.18490383 62.71030702 86.22631836 71.80371094 C86.25648121 78.42981198 86.27563583 85.05584404 86.28226548 91.68201184 C86.28613291 95.18153518 86.29503957 98.68086141 86.31719017 102.18032074 C86.56305074 142.65847585 86.56305074 142.65847585 78 160 C77.39343458 161.47818463 76.78915929 162.95731167 76.1875 164.4375 C63.93090094 191.43120031 40.93781559 210.60773208 13.625 221.32421875 C8.7262733 223.03517109 5.2632189 224 0 224 C0 150.08 0 76.16 0 0 Z " fill="#1A202C" transform="translate(510,464)"/>
<path d="M0 0 C2.40182411 1.33885714 2.40182411 1.33885714 5.35546875 2.234375 C5.35546875 2.894375 5.35546875 3.554375 5.35546875 4.234375 C6.0721875 4.47929687 6.78890625 4.72421875 7.52734375 4.9765625 C12.83462754 7.3369843 16.97024504 11.48765914 21.35546875 15.234375 C22.17015625 15.91242188 22.98484375 16.59046875 23.82421875 17.2890625 C29.1061178 21.79314765 33.30603859 26.61016645 37.35546875 32.234375 C37.95359375 33.0284375 38.55171875 33.8225 39.16796875 34.640625 C44.0517369 41.29265403 49.35546875 48.75868998 49.35546875 57.234375 C50.01546875 57.234375 50.67546875 57.234375 51.35546875 57.234375 C51.68546875 59.214375 52.01546875 61.194375 52.35546875 63.234375 C-15.62453125 63.234375 -83.60453125 63.234375 -153.64453125 63.234375 C-149.11041926 40.56381507 -132.08593151 20.16225139 -113.53515625 7.1171875 C-102.25193638 -0.23215301 -90.15883857 -7.75240014 -76.64453125 -9.765625 C-75.06865234 -10.04019531 -75.06865234 -10.04019531 -73.4609375 -10.3203125 C-48.33242222 -14.2694656 -22.63137631 -12.11168829 0 0 Z " fill="#1B212D" transform="translate(538.64453125,356.765625)"/>
<path d="M0 0 C1.32 0 2.64 0 4 0 C4.71264648 1.75683594 4.71264648 1.75683594 5 4 C3.64477539 5.92285156 3.64477539 5.92285156 1.59765625 7.890625 C0.51000977 8.95410156 0.51000977 8.95410156 -0.59960938 10.0390625 C-1.37111328 10.76867187 -2.14261719 11.49828125 -2.9375 12.25 C-4.08895508 13.36761719 -4.08895508 13.36761719 -5.26367188 14.5078125 C-7.16510754 16.35019737 -9.07720048 18.1799648 -11 20 C-11.66 19.67 -12.32 19.34 -13 19 C-8.86876855 14.02961216 -4.621943 9.62323939 0.3984375 5.54296875 C2.26234632 3.9859601 2.26234632 3.9859601 3 1 C2.01 0.67 1.02 0.34 0 0 Z " fill="#BBA5B5" transform="translate(386,334)"/>
<path d="M0 0 C0.33 0 0.66 0 1 0 C1.43230491 7.34918342 -0.18225815 13.90215087 -2 21 C-2.33 21 -2.66 21 -3 21 C-3.09765625 14.84765625 -3.09765625 14.84765625 -3 13 C-2.67 12.67 -2.34 12.34 -2 12 C-1.60430892 9.98688551 -1.25747809 7.96402792 -0.9375 5.9375 C-0.67259766 4.28041016 -0.67259766 4.28041016 -0.40234375 2.58984375 C-0.26957031 1.73519531 -0.13679688 0.88054687 0 0 Z " fill="#A58A98" transform="translate(340,414)"/>
<path d="M0 0 C0.66 0.33 1.32 0.66 2 1 C1.07038578 2.15224028 0.1309875 3.29659176 -0.8125 4.4375 C-1.59560547 5.39462891 -1.59560547 5.39462891 -2.39453125 6.37109375 C-4 8 -4 8 -7 9 C-5.44499019 5.18315774 -2.96404505 2.80804268 0 0 Z " fill="#B9A3B3" transform="translate(378,260)"/>
<path d="M0 0 C0.66 0 1.32 0 2 0 C0.70700306 2.88437779 -0.65941363 4.87219421 -3 7 C-3.66 6.67 -4.32 6.34 -5 6 C-3.38405168 3.95880212 -1.7143618 1.95927063 0 0 Z " fill="#BEA9BA" transform="translate(572,261)"/>
</svg>
